<svg width="21" height="21" viewBox="0 0 21 21" fill="none" xmlns="http://www.w3.org/2000/svg">
<path d="M16.8 16.8C17.357 16.8 17.8911 17.0212 18.2849 17.4151C18.6787 17.8089 18.9 18.343 18.9 18.9C18.9 19.457 18.6787 19.9911 18.2849 20.3849C17.8911 20.7787 17.357 21 16.8 21C16.243 21 15.7089 20.7787 15.3151 20.3849C14.9212 19.9911 14.7 19.457 14.7 18.9C14.7 17.7345 15.6345 16.8 16.8 16.8ZM0 0H3.4335L4.4205 2.1H19.95C20.2285 2.1 20.4955 2.21062 20.6925 2.40754C20.8894 2.60445 21 2.87152 21 3.15C21 3.3285 20.9475 3.507 20.874 3.675L17.115 10.4685C16.758 11.109 16.065 11.55 15.2775 11.55H7.455L6.51 13.2615L6.4785 13.3875C6.4785 13.4571 6.50616 13.5239 6.55538 13.5731C6.60461 13.6223 6.67138 13.65 6.741 13.65H18.9V15.75H6.3C5.74304 15.75 5.2089 15.5287 4.81508 15.1349C4.42125 14.7411 4.2 14.207 4.2 13.65C4.2 13.2825 4.2945 12.936 4.452 12.642L5.88 10.0695L2.1 2.1H0V0ZM6.3 16.8C6.85695 16.8 7.3911 17.0212 7.78492 17.4151C8.17875 17.8089 8.4 18.343 8.4 18.9C8.4 19.457 8.17875 19.9911 7.78492 20.3849C7.3911 20.7787 6.85695 21 6.3 21C5.74304 21 5.2089 20.7787 4.81508 20.3849C4.42125 19.9911 4.2 19.457 4.2 18.9C4.2 17.7345 5.1345 16.8 6.3 16.8ZM15.75 9.45L18.669 4.2H5.397L7.875 9.45H15.75Z" fill="#FFFBE4"/>
</svg>
