<svg width="32" height="31" viewBox="0 0 32 31" fill="none" xmlns="http://www.w3.org/2000/svg">
<path d="M16 0C7 0 0 7 0 16C0 26.5 9.5 31 11 31C12 31 12 30.5 12 30V27.5C8.5 28.5 7 26.5 6.5 25C6.5 25 6.5 24.5 5.5 23.5C5 23 3 22 5 22C6.5 22 7.5 24 7.5 24C9 26 11 25.5 12 25C12 24 13 23 13 23C9 22.5 6 21 6 15.5C6 13.5 6.5 12 7.5 11C7.5 11 6.5 9 7.5 6.5C7.5 6.5 10 6.5 12 8.5C13.5 7.5 18.5 7.5 20 8.5C22 6.5 24.5 6.5 24.5 6.5C25.5 10 24.5 11 24.5 11C25.5 12 26 13.5 26 15.5C26 21 22.5 22.5 19 23C19.5 23.5 20 24.5 20 26V30C20 30.5 20 31 21 31C22.5 31 32 26.5 32 16C32 7 25 0 16 0Z" fill="#FFFBE4"/>
</svg>
