<svg width="29" height="28" viewBox="0 0 29 28" fill="none" xmlns="http://www.w3.org/2000/svg">
<path d="M28.2984 5.73804C27.8484 4.61518 27.1996 3.59764 26.3883 2.74241C25.5764 1.88462 24.6191 1.20295 23.5686 0.734463C22.4792 0.246742 21.3108 -0.0029008 20.1311 2.54299e-05C18.4762 2.54299e-05 16.8615 0.488444 15.4584 1.41101C15.1227 1.63171 14.8038 1.87411 14.5017 2.13822C14.1995 1.87411 13.8806 1.63171 13.545 1.41101C12.1418 0.488444 10.5271 2.54299e-05 8.8722 2.54299e-05C7.68051 2.54299e-05 6.52575 0.246044 5.43477 0.734463C4.38071 1.20479 3.43072 1.88134 2.615 2.74241C1.80263 3.59668 1.15368 4.61445 0.704942 5.73804C0.238337 6.90663 0 8.14758 0 9.4247C0 10.6295 0.228267 11.8849 0.681444 13.162C1.06077 14.2293 1.60458 15.3364 2.29945 16.4543C3.40051 18.2235 4.91445 20.0686 6.7943 21.9391C9.90947 25.0396 12.9944 27.1814 13.1253 27.2683L13.9209 27.8182C14.2734 28.0606 14.7266 28.0606 15.079 27.8182L15.8746 27.2683C16.0055 27.1778 19.0871 25.0396 22.2057 21.9391C24.0855 20.0686 25.5995 18.2235 26.7005 16.4543C27.3954 15.3364 27.9426 14.2293 28.3185 13.162C28.7717 11.8849 29 10.6295 29 9.4247C29.0033 8.14758 28.765 6.90663 28.2984 5.73804Z" fill="#FFFBE4"/>
</svg>
