<svg width="60" height="60" viewBox="0 0 60 60" fill="none" xmlns="http://www.w3.org/2000/svg">
<path d="M46.594 43.8315C42.8431 43.8315 39.7954 46.8792 39.7954 50.6301C39.7954 54.3811 42.8431 57.4287 46.594 57.4287C50.345 57.4287 53.3926 54.3811 53.3926 50.6301C53.4073 46.8792 50.345 43.8315 46.594 43.8315ZM46.594 54.4983C44.4548 54.4983 42.7258 52.7694 42.7258 50.6301C42.7258 48.4909 44.4548 46.762 46.594 46.762C48.7332 46.762 50.4622 48.4909 50.4622 50.6301C50.4768 52.7694 48.7332 54.4983 46.594 54.4983Z" fill="#455F47"/>
<path d="M58.55 10.7764H12.9965L12.6155 8.88625C11.9122 5.22321 8.65942 2.57117 4.87917 2.57117H1.46522C0.659347 2.57117 0 3.23051 0 4.03638C0 4.84225 0.659347 5.5016 1.46522 5.5016H4.86452C7.28212 5.5016 9.27482 7.09868 9.72903 9.42838L15.2089 36.9598C15.7511 39.6997 18.1687 41.6924 20.9526 41.6924H49.3485C52.1324 41.6924 54.55 39.6704 55.0921 36.9451L59.9713 12.5053C60.0592 12.0804 59.942 11.6409 59.6636 11.3039C59.3998 10.9669 58.9749 10.7764 58.55 10.7764ZM55.898 17.9559H48.7038L49.2312 13.7068H56.7478L55.898 17.9559ZM36.8941 17.9559V13.7068H46.2862L45.7587 17.9559H36.8941ZM45.3924 20.8864L44.8942 24.8424H36.8941V20.8864H45.3924ZM33.9637 17.9559H25.1138L24.5863 13.7068H33.9637V17.9559ZM33.9637 20.8864V24.8424H25.9783L25.4801 20.8864H33.9637ZM23.0332 24.8424H15.8097L15.0185 20.8864H22.535L23.0332 24.8424ZM16.3811 27.7729H23.3848L23.8684 31.729H17.1577L16.3811 27.7729ZM26.3446 27.7729H33.9637V31.729H26.8281L26.3446 27.7729ZM33.9637 34.6594V38.762H27.6926L27.1944 34.6594H33.9637ZM36.8941 34.6594H43.6781L43.1799 38.762H36.8941V34.6594ZM36.8941 31.729V27.7729H44.5279L44.0444 31.729H36.8941ZM47.4876 27.7729H53.9346L53.1434 31.729H47.0041L47.4876 27.7729ZM47.8539 24.8424L48.3521 20.8864H55.3265L54.5207 24.8424H47.8539ZM21.6412 13.7068L22.1687 17.9559H14.4324L13.5825 13.7068H21.6412ZM18.0808 36.359L17.7584 34.6594H24.2493L24.7475 38.762H20.9526C19.5606 38.762 18.3592 37.7217 18.0808 36.359ZM49.3485 38.762H46.125L46.6232 34.6594H52.5426L52.2056 36.359C51.9419 37.7217 50.7404 38.762 49.3485 38.762Z" fill="#455F47"/>
<path d="M23.8245 43.8315C20.0735 43.8315 17.0259 46.8792 17.0259 50.6301C17.0259 54.3811 20.0735 57.4287 23.8245 57.4287C27.5754 57.4287 30.6231 54.3811 30.6231 50.6301C30.6231 46.8792 27.5754 43.8315 23.8245 43.8315ZM23.8245 54.4983C21.6853 54.4983 19.9563 52.7694 19.9563 50.6301C19.9563 48.4909 21.6853 46.762 23.8245 46.762C25.9637 46.762 27.6927 48.4909 27.6927 50.6301C27.6927 52.7694 25.9637 54.4983 23.8245 54.4983Z" fill="#455F47"/>
</svg>
