<svg width="81" height="76" viewBox="0 0 81 76" fill="none" xmlns="http://www.w3.org/2000/svg">
<path d="M24.4368 33.6282C24.4368 34.0952 24.8397 34.4732 25.336 34.4732H27.9652C28.4615 34.4732 28.8643 34.0952 28.8643 33.6282V29.2593H24.4368V33.6282Z" fill="#455F47"/>
<path d="M26.6447 27.0395C29.7821 27.0395 32.3215 24.3131 32.3215 20.9494C32.3215 17.5859 29.7819 14.8585 26.6447 14.8585C23.514 14.8585 20.9719 17.5859 20.9719 20.9494C20.9718 24.3131 23.514 27.0395 26.6447 27.0395Z" fill="#455F47"/>
<path d="M76.8677 9.66192C79.931 8.80204 81.6699 5.77699 80.7568 2.90529C80.3342 1.5771 79.0321 0.666626 77.555 0.666626H3.44515C1.96785 0.666626 0.665775 1.57679 0.24331 2.90498C-0.670646 5.77668 1.06965 8.80204 4.13244 9.66192C4.65098 9.80671 5.17333 9.86805 5.69121 9.87661V71.2506C5.69121 73.505 7.63959 75.3333 10.0436 75.3333H71.0711C73.4739 75.3333 75.4224 73.5052 75.4224 71.2506L75.3089 9.87661C75.8274 9.86821 76.3505 9.80671 76.8677 9.66192ZM11.0465 6.69603C11.1545 6.47495 11.2546 6.25247 11.3309 6.0127L11.6351 5.05786C11.8418 6.78975 12.9201 8.3166 14.5367 9.17009C15.0555 9.44302 15.6123 9.66799 16.2273 9.78289C16.6104 9.85451 16.9894 9.88923 17.3646 9.88923C20.0674 9.88923 22.4846 8.10175 23.0323 5.5187L23.1732 4.85406C23.3167 6.69712 24.4411 8.32018 26.1145 9.19718C26.7859 9.54935 27.5414 9.78507 28.3551 9.86182C28.5501 9.87926 28.7447 9.88658 28.9369 9.88658C31.8714 9.88658 34.3886 7.79769 34.6863 4.99745L34.7283 4.59468C34.7822 6.56961 35.9631 8.26818 37.6905 9.17617C38.5251 9.61583 39.4743 9.88658 40.4999 9.88658C41.5255 9.88658 42.4747 9.61599 43.3095 9.17617C45.0367 8.26818 46.2176 6.56961 46.2715 4.59468L46.3138 4.99745C46.6125 7.79769 49.1284 9.88658 52.0644 9.88658C52.2567 9.88658 52.45 9.87926 52.645 9.86182C53.4587 9.78522 54.2155 9.54935 54.8869 9.19718C56.5592 8.32003 57.6845 6.69696 57.8282 4.85406L57.9689 5.5187C58.5165 8.103 60.9323 9.88923 63.6367 9.88923C64.0104 9.88923 64.3907 9.85451 64.7727 9.78289C65.389 9.66799 65.9443 9.44317 66.4645 9.17009C68.0812 8.31645 69.1594 6.78975 69.3649 5.05786L69.669 6.0127C69.7452 6.25247 69.8467 6.47495 69.9546 6.69603V45.4485H67.2637V17.9465C67.2637 16.4048 65.9274 15.1511 64.2843 15.1511H44.9854C43.3423 15.1511 42.0074 16.4048 42.0074 17.9465V37.2646L39.4112 37.5589L34.1253 30.2991C33.4776 29.406 32.3322 29.033 31.2724 29.2591C31.0751 29.3023 30.8921 29.4012 30.7024 29.4862V34.6584V43.7364H33.9029V39.0534L35.8461 41.7228C36.3571 42.4244 37.2023 42.8369 38.0949 42.8369C38.2027 42.8369 38.3122 42.8307 38.4199 42.8184L42.0076 42.4119V45.4483H15.6438L19.417 39.682V43.7364H22.5991V34.8178V29.4789C22.3923 29.3838 22.1818 29.3023 21.9632 29.2591C20.8719 29.0478 19.712 29.4604 19.0959 30.4028L11.0467 42.706L11.0465 6.69603ZM60.0385 45.4485V41.0485C60.0385 40.5298 59.5883 40.1072 59.0339 40.1072H56.9431C56.3878 40.1072 55.9388 40.5296 55.9388 41.0485V45.4485H53.9993V40.4505C53.9993 39.9293 53.549 39.5081 52.9949 39.5081H49.926C49.373 39.5081 48.9213 39.9293 48.9213 40.4505V45.4485H44.6839V42.1033C46.1544 41.9143 47.2011 40.6593 47.0207 39.2721C46.9299 38.5531 46.5176 37.9492 45.9425 37.5466H64.5857V45.4485H60.0385ZM64.5857 24.9849H57.9885V22.5219C57.9885 22.0017 57.5382 21.5795 56.9841 21.5795H54.8091C54.255 21.5795 53.8047 22.0017 53.8047 22.5219V24.9849H51.4624V21.0299C51.4624 20.5098 51.0122 20.0886 50.4582 20.0886H48.3661C47.8104 20.0886 47.3615 20.5098 47.3615 21.0299V24.9849H44.6839V17.9465C44.6839 17.7922 44.8206 17.6648 44.9854 17.6648H64.2843C64.4501 17.6648 64.5857 17.792 64.5857 17.9465V24.9849ZM44.6839 27.4963H64.5857V35.0339H63.0651V30.2942C63.0651 29.7741 62.6162 29.3517 62.0607 29.3517H58.9931C58.4374 29.3517 57.9885 29.7741 57.9885 30.2942V35.0339H56.5376V30.2942C56.5376 29.7741 56.0886 29.3517 55.5345 29.3517H52.4645C51.9114 29.3517 51.4624 29.7741 51.4624 30.2942V35.0339H44.6839V27.4963ZM51.3099 63.2376C48.5305 67.8895 43.2658 70.7787 37.5707 70.7787C35.4262 70.7787 33.3328 70.3724 31.3487 69.572C23.9196 66.568 20.1318 58.8461 22.5383 51.6111C22.8174 50.7738 23.4639 50.0809 24.3223 49.7064C24.7594 49.5187 25.2241 49.4248 25.7047 49.4248C26.16 49.4248 26.5997 49.5087 27.0172 49.6767L49.7299 58.8585C50.5884 59.2068 51.2571 59.8851 51.5575 60.7199C51.8588 61.5551 51.768 62.4741 51.3099 63.2376ZM51.8497 54.5833C51.7483 55.1439 51.1848 55.5218 50.5856 55.4266C49.9892 55.3328 49.5918 54.8017 49.6877 54.2434C49.7891 53.6824 50.6226 51.7877 51.2216 51.8803C51.8182 51.9744 51.9497 54.0237 51.8497 54.5833ZM54.6934 60.6346C55.1026 60.2172 56.9052 59.0536 57.3513 59.4352C57.7977 59.8208 56.718 61.6067 56.3088 62.0245C55.8993 62.4433 55.2082 62.4716 54.762 62.0863C54.3154 61.7033 54.2879 61.0536 54.6934 60.6346ZM57.4001 67.378C56.8486 67.6103 55.5279 65.9735 55.279 65.4534C55.0303 64.9371 55.2778 64.3307 55.8281 64.0972C56.3795 63.8649 57.0288 64.0947 57.2748 64.6134C57.5239 65.1299 57.9529 67.1432 57.4001 67.378ZM56.7787 53.9249C56.3403 53.5333 56.3297 52.8848 56.747 52.4748C56.9302 52.2966 57.3868 51.9927 57.8687 51.7271C58.5008 51.3813 59.1839 51.1097 59.4328 51.332C59.5183 51.4087 59.5037 51.568 59.4881 51.7271C59.4209 52.3894 58.6652 53.5679 58.3282 53.8965C57.9082 54.3078 57.2131 54.3212 56.7787 53.9249ZM62.3489 64.0034C62.0817 64.5124 59.9517 64.0466 59.4077 63.797C58.864 63.5463 58.6376 62.9323 58.9035 62.4235C59.1693 61.9119 59.8264 61.702 60.37 61.9503C60.9139 62.1999 62.6147 63.4917 62.3489 64.0034Z" fill="#455F47"/>
<path d="M49.655 61.3228C49.538 60.9941 49.2758 60.7276 48.9348 60.5891L46.9298 59.7802C46.1292 61.523 44.8311 62.9127 43.2687 63.901L40.3802 57.133L34.6535 54.8182L27.5426 57.4724C27.2531 55.7519 27.4361 53.9384 28.2261 52.2202L26.2221 51.4086C26.0577 51.3418 25.8811 51.3085 25.7047 51.3085C25.5177 51.3085 25.3307 51.3457 25.1583 51.421C24.8213 51.5668 24.5658 51.8397 24.4566 52.1696C22.3858 58.3941 25.6203 65.2054 32.1424 67.8413C33.9144 68.5564 35.7576 68.895 37.5706 68.895C42.4351 68.895 47.0837 66.4579 49.5589 62.3173C49.7394 62.0134 49.7748 61.6539 49.655 61.3228ZM27.9467 58.982L36.7451 55.695L32.7665 64.3654C30.4128 63.1742 28.7395 61.2326 27.9467 58.982ZM34.2689 64.9889L38.2566 56.3039L41.8165 64.6483C39.5034 65.6461 36.8241 65.8166 34.2689 64.9889Z" fill="#455F47"/>
</svg>
