<svg width="150" height="71" viewBox="0 0 150 71" fill="none" xmlns="http://www.w3.org/2000/svg">
<g clip-path="url(#clip0)">
<g filter="url(#filter0_d)">
<path d="M48.6633 39.508L42.8113 25.22H48.7393L52.3873 34.112L55.4273 25.22H60.7473L55.1613 40.99L61.2793 56H55.4273L51.3993 46.272L47.8653 56H42.5833L48.6633 39.508ZM70.4682 56.38C68.0615 56.38 66.2248 55.7213 64.9582 54.404C63.7168 53.0867 63.0962 51.1867 63.0962 48.704V41.332C63.0962 38.8493 63.7295 36.9493 64.9962 35.632C66.2628 34.3147 68.0868 33.656 70.4682 33.656C72.9255 33.656 74.7242 34.3147 75.8642 35.632C77.0042 36.9493 77.5742 38.9 77.5742 41.484V45.322H68.7962V49.578C68.7962 50.5153 68.9355 51.1993 69.2142 51.63C69.5182 52.0607 69.9488 52.276 70.5062 52.276C71.6462 52.276 72.2162 51.4527 72.2162 49.806V47.678H77.5362V49.578C77.5362 51.782 76.9282 53.4667 75.7122 54.632C74.4962 55.7973 72.7482 56.38 70.4682 56.38ZM72.2162 42.586V40.458C72.2162 39.4953 72.0768 38.8113 71.7982 38.406C71.5195 37.9753 71.0762 37.76 70.4682 37.76C69.8855 37.76 69.4548 37.988 69.1762 38.444C68.9228 38.9 68.7962 39.7107 68.7962 40.876V42.586H72.2162ZM80.9936 34.036H86.6936V35.67C88.1629 34.3273 89.7209 33.656 91.3676 33.656C93.0142 33.6813 94.2176 34.3527 94.9776 35.67C95.7376 36.9873 96.1176 38.6087 96.1176 40.534V49.122C96.1176 51.3007 95.6996 53.0613 94.8636 54.404C94.0276 55.7213 92.7989 56.38 91.1776 56.38C89.7336 56.38 88.2389 55.696 86.6936 54.328V63.22H80.9936V34.036ZM88.6316 52.542C89.7969 52.542 90.3796 51.478 90.3796 49.35V40.154C90.3796 38.2287 89.8096 37.266 88.6696 37.266C88.0616 37.266 87.4029 37.5447 86.6936 38.102V51.896C87.3776 52.3267 88.0236 52.542 88.6316 52.542Z" fill="#455F47"/>
</g>
<g filter="url(#filter1_d)">
<path d="M113.97 39.2617C112.91 38.7579 112.109 38.0521 111.566 37.1444C111.023 36.2367 110.742 35.2582 110.721 34.209C110.739 33.1458 110.969 32.1506 111.41 31.2234C112.253 29.4485 113.383 28.1993 114.799 27.4759C116.215 26.7524 117.683 26.3625 119.204 26.3061C120.752 26.2623 122.722 26.3545 125.114 26.5826L126.134 24.4368C126.525 23.6156 126.702 22.9364 126.665 22.3992C126.654 21.8745 126.358 21.4737 125.775 21.1965C125.192 20.9194 124.693 20.9096 124.279 21.1672C123.864 21.4247 123.466 21.8852 123.086 22.5488L122.211 24.0816L116.681 21.1603C118.085 18.482 119.738 16.8157 121.641 16.1613C123.556 15.4805 125.811 15.7572 128.408 16.9916C130.659 18.0623 132.059 19.491 132.606 21.2777C133.153 23.0644 132.91 25.0439 131.877 27.2162L126.795 37.9054C125.938 39.7068 125.17 41.6639 124.49 43.7767L119.126 41.2261C119.385 40.4074 119.736 39.2262 120.178 37.6823C119.356 38.5908 118.391 39.22 117.282 39.57C116.213 39.9061 115.109 39.8033 113.97 39.2617ZM118.137 36.0301C118.535 36.2191 118.969 36.2629 119.439 36.1618C119.936 36.0732 120.385 35.9134 120.787 35.6824L123.792 29.3642C122.206 29.4875 120.9 29.7758 119.872 30.2291C118.845 30.6825 118.067 31.4655 117.538 32.5781C117.147 33.3993 117.004 34.1107 117.107 34.7122C117.211 35.3137 117.555 35.753 118.137 36.0301Z" fill="#455F47"/>
</g>
<path d="M122.063 55.9516C119.562 55.9516 117.53 58.0342 117.53 60.5973C117.53 63.1605 119.562 65.2431 122.063 65.2431C124.563 65.2431 126.595 63.1605 126.595 60.5973C126.605 58.0342 124.563 55.9516 122.063 55.9516ZM122.063 63.2406C120.637 63.2406 119.484 62.0591 119.484 60.5973C119.484 59.1355 120.637 57.9541 122.063 57.9541C123.489 57.9541 124.641 59.1355 124.641 60.5973C124.651 62.0591 123.489 63.2406 122.063 63.2406Z" fill="#455F47"/>
<path d="M130.033 33.3639H99.6643L99.4103 32.0723C98.9415 29.5692 96.773 27.757 94.2528 27.757H91.9768C91.4396 27.757 91 28.2075 91 28.7582C91 29.3089 91.4396 29.7594 91.9768 29.7594H94.243C95.8547 29.7594 97.1832 30.8508 97.486 32.4427L101.139 51.2558C101.501 53.1281 103.112 54.4898 104.968 54.4898H123.899C125.755 54.4898 127.367 53.1081 127.728 51.2458L130.981 34.5453C131.039 34.2549 130.961 33.9546 130.776 33.7243C130.6 33.494 130.317 33.3639 130.033 33.3639ZM127.884 40.2723H123.235L123.899 34.5453H128.813L127.884 40.2723ZM115.596 40.2723V34.5453H122.082L121.262 40.2723H115.596ZM121.262 40.2723L120.929 42.9757H115.596V40.2723H121.262ZM113.642 40.2723H107.987L107.498 34.5453H113.642V40.2723ZM113.642 40.2723V42.9757H108.319L107.987 40.2723H113.642ZM106.355 42.9757H101.54L101.012 40.2723H106.023L106.355 42.9757ZM101.921 44.9781H106.59L106.912 47.6814H102.438L101.921 44.9781ZM108.563 44.9781H113.642V47.6814H108.885L108.563 44.9781ZM113.642 49.6839V52.4874H109.462L109.13 49.6839H113.642ZM115.596 49.6839H120.119L119.787 52.4874H115.596V49.6839ZM115.596 47.6814V44.9781H120.685L120.363 47.6814H115.596ZM122.658 44.9781H126.956L126.429 47.6814H122.336L122.658 44.9781ZM122.903 42.9757L123.235 40.2723H127.884L127.347 42.9757H122.903ZM105.375 34.5453L106.023 40.2723H101.012L99.6643 34.5453H105.375ZM103.054 50.8453L102.839 49.6839H107.166L107.498 52.4874H104.968C104.04 52.4874 103.239 51.7765 103.054 50.8453ZM123.899 52.4874H121.75L122.082 49.6839H126.028L125.804 50.8453C125.628 51.7765 124.827 52.4874 123.899 52.4874Z" fill="#455F47"/>
<path d="M106.883 55.9516C104.382 55.9516 102.351 58.0342 102.351 60.5973C102.351 63.1605 104.382 65.2431 106.883 65.2431C109.384 65.2431 111.415 63.1605 111.415 60.5973C111.415 58.0342 109.384 55.9516 106.883 55.9516ZM106.883 63.2406C105.457 63.2406 104.304 62.0591 104.304 60.5973C104.304 59.1355 105.457 57.9541 106.883 57.9541C108.309 57.9541 109.462 59.1355 109.462 60.5973C109.462 62.0591 108.309 63.2406 106.883 63.2406Z" fill="#455F47"/>
</g>
<defs>
<filter id="filter0_d" x="38.5833" y="25.22" width="61.5343" height="46" filterUnits="userSpaceOnUse" color-interpolation-filters="sRGB">
<feFlood flood-opacity="0" result="BackgroundImageFix"/>
<feColorMatrix in="SourceAlpha" type="matrix" values="0 0 0 0 0 0 0 0 0 0 0 0 0 0 0 0 0 0 127 0"/>
<feOffset dy="4"/>
<feGaussianBlur stdDeviation="2"/>
<feColorMatrix type="matrix" values="0 0 0 0 0 0 0 0 0 0 0 0 0 0 0 0 0 0 0.25 0"/>
<feBlend mode="normal" in2="BackgroundImageFix" result="effect1_dropShadow"/>
<feBlend mode="normal" in="SourceGraphic" in2="effect1_dropShadow" result="shape"/>
</filter>
<filter id="filter1_d" x="106.721" y="15.7983" width="30.1694" height="35.9785" filterUnits="userSpaceOnUse" color-interpolation-filters="sRGB">
<feFlood flood-opacity="0" result="BackgroundImageFix"/>
<feColorMatrix in="SourceAlpha" type="matrix" values="0 0 0 0 0 0 0 0 0 0 0 0 0 0 0 0 0 0 127 0"/>
<feOffset dy="4"/>
<feGaussianBlur stdDeviation="2"/>
<feColorMatrix type="matrix" values="0 0 0 0 0 0 0 0 0 0 0 0 0 0 0 0 0 0 0.25 0"/>
<feBlend mode="normal" in2="BackgroundImageFix" result="effect1_dropShadow"/>
<feBlend mode="normal" in="SourceGraphic" in2="effect1_dropShadow" result="shape"/>
</filter>
<clipPath id="clip0">
<rect width="199" height="97" fill="white" transform="translate(0 -26)"/>
</clipPath>
</defs>
</svg>
