<svg width="202" height="97" viewBox="0 0 202 97" fill="none" xmlns="http://www.w3.org/2000/svg">
<g clip-path="url(#clip0)">
<g filter="url(#filter0_d)">
<path d="M48.6633 65.508L42.8113 51.22H48.7393L52.3873 60.112L55.4273 51.22H60.7473L55.1613 66.99L61.2793 82H55.4273L51.3993 72.272L47.8653 82H42.5833L48.6633 65.508ZM70.4682 82.38C68.0615 82.38 66.2248 81.7213 64.9582 80.404C63.7168 79.0867 63.0962 77.1867 63.0962 74.704V67.332C63.0962 64.8493 63.7295 62.9493 64.9962 61.632C66.2628 60.3147 68.0868 59.656 70.4682 59.656C72.9255 59.656 74.7242 60.3147 75.8642 61.632C77.0042 62.9493 77.5742 64.9 77.5742 67.484V71.322H68.7962V75.578C68.7962 76.5153 68.9355 77.1993 69.2142 77.63C69.5182 78.0607 69.9488 78.276 70.5062 78.276C71.6462 78.276 72.2162 77.4527 72.2162 75.806V73.678H77.5362V75.578C77.5362 77.782 76.9282 79.4667 75.7122 80.632C74.4962 81.7973 72.7482 82.38 70.4682 82.38ZM72.2162 68.586V66.458C72.2162 65.4953 72.0768 64.8113 71.7982 64.406C71.5195 63.9753 71.0762 63.76 70.4682 63.76C69.8855 63.76 69.4548 63.988 69.1762 64.444C68.9228 64.9 68.7962 65.7107 68.7962 66.876V68.586H72.2162ZM80.9936 60.036H86.6936V61.67C88.1629 60.3273 89.7209 59.656 91.3676 59.656C93.0142 59.6813 94.2176 60.3527 94.9776 61.67C95.7376 62.9873 96.1176 64.6087 96.1176 66.534V75.122C96.1176 77.3007 95.6996 79.0613 94.8636 80.404C94.0276 81.7213 92.7989 82.38 91.1776 82.38C89.7336 82.38 88.2389 81.696 86.6936 80.328V89.22H80.9936V60.036ZM88.6316 78.542C89.7969 78.542 90.3796 77.478 90.3796 75.35V66.154C90.3796 64.2287 89.8096 63.266 88.6696 63.266C88.0616 63.266 87.4029 63.5447 86.6936 64.102V77.896C87.3776 78.3267 88.0236 78.542 88.6316 78.542Z" fill="#FFFBE4"/>
</g>
<g filter="url(#filter1_d)">
<path d="M115.97 64.2617C114.91 63.7579 114.109 63.0521 113.566 62.1444C113.023 61.2367 112.742 60.2582 112.721 59.209C112.739 58.1458 112.969 57.1506 113.409 56.2234C114.253 54.4485 115.383 53.1993 116.799 52.4759C118.215 51.7524 119.683 51.3625 121.204 51.3061C122.752 51.2623 124.722 51.3545 127.114 51.5826L128.134 49.4368C128.525 48.6156 128.702 47.9364 128.665 47.3992C128.654 46.8745 128.358 46.4737 127.775 46.1965C127.192 45.9194 126.693 45.9096 126.279 46.1672C125.864 46.4247 125.466 46.8852 125.086 47.5488L124.211 49.0816L118.681 46.1603C120.085 43.482 121.738 41.8157 123.64 41.1613C125.556 40.4805 127.811 40.7572 130.408 41.9916C132.659 43.0623 134.059 44.491 134.606 46.2777C135.153 48.0644 134.91 50.0439 133.877 52.2162L128.795 62.9054C127.938 64.7068 127.17 66.6639 126.49 68.7767L121.126 66.2261C121.385 65.4074 121.736 64.2262 122.178 62.6823C121.356 63.5908 120.391 64.22 119.282 64.57C118.213 64.9061 117.109 64.8033 115.97 64.2617ZM120.137 61.0301C120.535 61.2191 120.969 61.2629 121.439 61.1618C121.936 61.0732 122.385 60.9134 122.787 60.6824L125.791 54.3642C124.206 54.4875 122.9 54.7758 121.872 55.2291C120.845 55.6825 120.067 56.4655 119.537 57.5781C119.147 58.3993 119.004 59.1107 119.107 59.7122C119.211 60.3137 119.554 60.753 120.137 61.0301Z" fill="#FFFBE4"/>
</g>
<path d="M123.063 81.9516C120.562 81.9516 118.53 84.0342 118.53 86.5973C118.53 89.1605 120.562 91.243 123.063 91.243C125.563 91.243 127.595 89.1605 127.595 86.5973C127.605 84.0342 125.563 81.9516 123.063 81.9516ZM123.063 89.2406C121.636 89.2406 120.484 88.0591 120.484 86.5973C120.484 85.1355 121.636 83.9541 123.063 83.9541C124.489 83.9541 125.641 85.1355 125.641 86.5973C125.651 88.0591 124.489 89.2406 123.063 89.2406Z" fill="#FFFBE4"/>
<path d="M131.033 59.3639H100.664L100.41 58.0723C99.9415 55.5692 97.773 53.757 95.2528 53.757H92.9768C92.4396 53.757 92 54.2075 92 54.7582C92 55.3089 92.4396 55.7594 92.9768 55.7594H95.243C96.8547 55.7594 98.1832 56.8508 98.486 58.4427L102.139 77.2558C102.501 79.1281 104.112 80.4898 105.968 80.4898H124.899C126.755 80.4898 128.367 79.1081 128.728 77.2458L131.981 60.5453C132.039 60.2549 131.961 59.9546 131.776 59.7243C131.6 59.494 131.317 59.3639 131.033 59.3639ZM128.884 66.2723H124.235L124.899 60.5453H129.813L128.884 66.2723ZM116.596 66.2723V60.5453H123.082L122.262 66.2723H116.596ZM122.262 66.2723L121.929 68.9757H116.596V66.2723H122.262ZM114.642 66.2723H108.987L108.498 60.5453H114.642V66.2723ZM114.642 66.2723V68.9757H109.319L108.987 66.2723H114.642ZM107.355 68.9757H102.54L102.012 66.2723H107.023L107.355 68.9757ZM102.921 70.9781H107.59L107.912 73.6814H103.438L102.921 70.9781ZM109.563 70.9781H114.642V73.6814H109.885L109.563 70.9781ZM114.642 75.6839V78.4874H110.462L110.13 75.6839H114.642ZM116.596 75.6839H121.119L120.787 78.4874H116.596V75.6839ZM116.596 73.6814V70.9781H121.685L121.363 73.6814H116.596ZM123.658 70.9781H127.956L127.429 73.6814H123.336L123.658 70.9781ZM123.903 68.9757L124.235 66.2723H128.884L128.347 68.9757H123.903ZM106.375 60.5453L107.023 66.2723H102.012L100.664 60.5453H106.375ZM104.054 76.8453L103.839 75.6839H108.166L108.498 78.4874H105.968C105.04 78.4874 104.239 77.7765 104.054 76.8453ZM124.899 78.4874H122.75L123.082 75.6839H127.028L126.804 76.8453C126.628 77.7765 125.827 78.4874 124.899 78.4874Z" fill="#FFFBE4"/>
<path d="M107.883 81.9516C105.382 81.9516 103.351 84.0342 103.351 86.5973C103.351 89.1605 105.382 91.243 107.883 91.243C110.384 91.243 112.415 89.1605 112.415 86.5973C112.415 84.0342 110.384 81.9516 107.883 81.9516ZM107.883 89.2406C106.457 89.2406 105.304 88.0591 105.304 86.5973C105.304 85.1355 106.457 83.9541 107.883 83.9541C109.309 83.9541 110.462 85.1355 110.462 86.5973C110.462 88.0591 109.309 89.2406 107.883 89.2406Z" fill="#FFFBE4"/>
</g>
<defs>
<filter id="filter0_d" x="38.5833" y="51.22" width="61.5343" height="46" filterUnits="userSpaceOnUse" color-interpolation-filters="sRGB">
<feFlood flood-opacity="0" result="BackgroundImageFix"/>
<feColorMatrix in="SourceAlpha" type="matrix" values="0 0 0 0 0 0 0 0 0 0 0 0 0 0 0 0 0 0 127 0"/>
<feOffset dy="4"/>
<feGaussianBlur stdDeviation="2"/>
<feColorMatrix type="matrix" values="0 0 0 0 0 0 0 0 0 0 0 0 0 0 0 0 0 0 0.25 0"/>
<feBlend mode="normal" in2="BackgroundImageFix" result="effect1_dropShadow"/>
<feBlend mode="normal" in="SourceGraphic" in2="effect1_dropShadow" result="shape"/>
</filter>
<filter id="filter1_d" x="108.721" y="40.7983" width="30.1694" height="35.9785" filterUnits="userSpaceOnUse" color-interpolation-filters="sRGB">
<feFlood flood-opacity="0" result="BackgroundImageFix"/>
<feColorMatrix in="SourceAlpha" type="matrix" values="0 0 0 0 0 0 0 0 0 0 0 0 0 0 0 0 0 0 127 0"/>
<feOffset dy="4"/>
<feGaussianBlur stdDeviation="2"/>
<feColorMatrix type="matrix" values="0 0 0 0 0 0 0 0 0 0 0 0 0 0 0 0 0 0 0.25 0"/>
<feBlend mode="normal" in2="BackgroundImageFix" result="effect1_dropShadow"/>
<feBlend mode="normal" in="SourceGraphic" in2="effect1_dropShadow" result="shape"/>
</filter>
<clipPath id="clip0">
<rect width="202" height="97" fill="white"/>
</clipPath>
</defs>
</svg>
