<svg width="58" height="58" viewBox="0 0 58 58" fill="none" xmlns="http://www.w3.org/2000/svg">
<path d="M29.0001 0.555557C23.3743 0.555557 17.8749 2.22379 13.1972 5.34931C8.51957 8.47483 4.87377 12.9172 2.72088 18.1148C0.567989 23.3123 0.00469369 29.0316 1.10223 34.5492C2.19976 40.0669 4.90883 45.1352 8.88686 49.1133C12.8649 53.0913 17.9332 55.8004 23.4509 56.8979C28.9686 57.9954 34.6878 57.4321 39.8853 55.2792C45.0829 53.1264 49.5253 49.4806 52.6508 44.8029C55.7763 40.1252 57.4446 34.6258 57.4446 29C57.4446 21.4561 54.4478 14.2211 49.1134 8.88674C43.779 3.55237 36.5441 0.555557 29.0001 0.555557ZM47.5779 19.4533L24.2179 42.7956L10.4223 29C9.95085 28.5285 9.68596 27.889 9.68596 27.2222C9.68596 26.5554 9.95085 25.9159 10.4223 25.4444C10.8938 24.9729 11.5333 24.7081 12.2001 24.7081C12.8669 24.7081 13.5064 24.9729 13.9779 25.4444L24.2535 35.72L44.0579 15.9333C44.2914 15.6999 44.5685 15.5147 44.8736 15.3883C45.1786 15.262 45.5055 15.197 45.8357 15.197C46.1658 15.197 46.4928 15.262 46.7978 15.3883C47.1028 15.5147 47.38 15.6999 47.6135 15.9333C47.8469 16.1668 48.0321 16.444 48.1585 16.749C48.2848 17.054 48.3498 17.3809 48.3498 17.7111C48.3498 18.0413 48.2848 18.3682 48.1585 18.6732C48.0321 18.9783 47.8469 19.2554 47.6135 19.4889L47.5779 19.4533Z" fill="#FFFBE4"/>
</svg>
